<svg xmlns="http://www.w3.org/2000/svg" width="300" height="300" viewBox="0 0 300 300"><rect width="100%" height="100%" fill="#EEE"/><path fill="#333" d="M106.165 149.75q0 5.33-1.78 9.78-1.77 4.46-4.99 7.67-3.21 3.22-7.74 4.99-4.52 1.78-10.05 1.78h-18.45v-48.44h18.45q5.53 0 10.05 1.79 4.53 1.79 7.74 4.99 3.22 3.2 4.99 7.66 1.78 4.45 1.78 9.78m-9.25 0q0-3.99-1.05-7.15-1.06-3.17-3.05-5.36-1.99-2.2-4.82-3.37t-6.39-1.17h-9.41v34.1h9.41q3.56 0 6.39-1.17t4.82-3.37q1.99-2.19 3.05-5.36 1.05-3.16 1.05-7.15m22.42 3.08h15.61q0-1.61-.46-3.03-.45-1.42-1.35-2.5-.91-1.07-2.3-1.69t-3.23-.62q-3.58 0-5.65 2.05-2.06 2.04-2.62 5.79m21.1 4.99h-21.27q.2 2.65.94 4.58.73 1.92 1.94 3.18 1.2 1.25 2.86 1.87t3.67.62 3.47-.47q1.46-.46 2.54-1.03 1.09-.57 1.91-1.04t1.6-.47q1.03 0 1.54.77l2.37 3.01q-1.37 1.61-3.08 2.7t-3.57 1.74q-1.85.66-3.78.92-1.93.27-3.74.27-3.58 0-6.66-1.19t-5.36-3.51q-2.28-2.33-3.59-5.77-1.3-3.43-1.3-7.95 0-3.52 1.14-6.62 1.13-3.1 3.26-5.39 2.13-2.3 5.19-3.64 3.07-1.34 6.92-1.34 3.25 0 6 1.04t4.72 3.03q1.98 2 3.1 4.89 1.12 2.9 1.12 6.62 0 1.88-.4 2.53t-1.54.65m16.42 16.15h-8.28V139.6h5.06q1.61 0 2.11 1.51l.54 2.54q.9-1 1.89-1.84t2.11-1.44 2.41-.96q1.29-.35 2.83-.35 3.25 0 5.34 1.76 2.1 1.76 3.14 4.67.8-1.7 2.01-2.93 1.2-1.22 2.64-1.99t3.07-1.14q1.62-.37 3.27-.37 2.84 0 5.05.87 2.21.88 3.72 2.55t2.3 4.09q.78 2.41.78 5.52v21.88h-8.27v-21.88q0-3.28-1.44-4.94t-4.22-1.66q-1.27 0-2.36.44t-1.91 1.26-1.29 2.06-.47 2.84v21.88h-8.31v-21.88q0-3.45-1.39-5.02-1.39-1.58-4.07-1.58-1.81 0-3.37.89-1.55.89-2.89 2.43zm63.04-34.91q3.82 0 6.95 1.24 3.14 1.24 5.36 3.52 2.23 2.28 3.44 5.56 1.2 3.28 1.2 7.34 0 4.08-1.2 7.37-1.21 3.28-3.44 5.59-2.22 2.31-5.36 3.55-3.13 1.24-6.95 1.24-3.85 0-7-1.24t-5.38-3.55q-2.22-2.31-3.45-5.59-1.22-3.29-1.22-7.37 0-4.06 1.22-7.34 1.23-3.28 3.45-5.56 2.23-2.28 5.38-3.52t7-1.24m0 29.05q4.29 0 6.35-2.88t2.06-8.45q0-5.56-2.06-8.47-2.06-2.92-6.35-2.92-4.35 0-6.45 2.94-2.09 2.93-2.09 8.45 0 5.53 2.09 8.43 2.1 2.9 6.45 2.9"/></svg>